<svg width="38" height="38" viewBox="0 0 38 38" fill="none" xmlns="http://www.w3.org/2000/svg">
<g clip-path="url(#clip0_1133_209)">
<path d="M9 13.9343C7.27688 13.9343 5.875 15.3362 5.875 17.0593C5.875 18.7825 7.27688 20.1843 9 20.1843C10.7231 20.1843 12.125 18.7825 12.125 17.0593C12.125 15.3362 10.7231 13.9343 9 13.9343ZM9 18.9343C7.96625 18.9343 7.125 18.0931 7.125 17.0593C7.125 16.0256 7.96625 15.1843 9 15.1843C10.0338 15.1843 10.875 16.0256 10.875 17.0593C10.875 18.0931 10.0338 18.9343 9 18.9343Z" fill="black" stroke="black" stroke-width="0.5"/>
<path d="M29 10.1843C30.7231 10.1843 32.125 8.78245 32.125 7.05933C32.125 5.3362 30.7231 3.93433 29 3.93433C27.2769 3.93433 25.875 5.3362 25.875 7.05933C25.875 8.78245 27.2769 10.1843 29 10.1843ZM29 5.18433C30.0338 5.18433 30.875 6.02558 30.875 7.05933C30.875 8.09308 30.0338 8.93433 29 8.93433C27.9662 8.93433 27.125 8.09308 27.125 7.05933C27.125 6.02558 27.9662 5.18433 29 5.18433Z" fill="black" stroke="black" stroke-width="0.5"/>
<path d="M29 20.2506C25.5456 20.2506 22.5613 22.2675 21.1394 25.1813L16.8381 22.8638C17.4163 21.6963 17.7494 20.3875 17.7494 18.9994C17.7494 17.6113 17.4156 16.3019 16.8381 15.135L21.1388 12.8181C22.56 15.7325 25.545 17.75 28.9994 17.75C33.8244 17.75 37.7494 13.825 37.7494 9.00002C37.7494 4.17502 33.825 0.24939 29 0.24939C24.175 0.24939 20.25 4.17439 20.25 8.99939C20.25 9.92502 20.3969 10.8156 20.6644 11.6538L16.2106 14.0531C14.6319 11.7588 11.99 10.2494 9 10.2494C4.175 10.2494 0.25 14.1744 0.25 18.9994C0.25 23.8244 4.175 27.7494 9 27.7494C11.99 27.7494 14.6319 26.24 16.2106 23.9456L20.6644 26.3456C20.3969 27.1838 20.25 28.075 20.25 29.0006C20.25 33.8256 24.175 37.7506 29 37.7506C33.825 37.7506 37.75 33.8256 37.75 29.0006C37.75 24.1756 33.825 20.2506 29 20.2506ZM29 16.4994C27.7356 16.4994 26.545 16.1819 25.4987 15.6269C25.6337 13.9244 27.0462 12.5756 28.7831 12.5756C30.5881 12.5756 32.0544 14.0288 32.0875 15.8263C31.1444 16.2544 30.1012 16.4994 29 16.4994ZM29 1.49939C33.1356 1.49939 36.5 4.86377 36.5 8.99939C36.5 11.5444 35.2231 13.7944 33.2788 15.1506C32.925 12.9856 31.0469 11.3263 28.7831 11.3263C26.6194 11.3263 24.8069 12.8425 24.3419 14.8669C22.6131 13.4919 21.5 11.375 21.5 8.99939C21.5 4.86377 24.8644 1.49939 29 1.49939ZM9 26.4994C7.73563 26.4994 6.545 26.1819 5.49875 25.6269C5.63375 23.9244 7.04625 22.5756 8.78312 22.5756C10.5881 22.5756 12.0544 24.0288 12.0875 25.8263C11.1444 26.2544 10.1012 26.4994 9 26.4994ZM13.2788 25.1506C12.925 22.9856 11.0469 21.3263 8.78312 21.3263C6.61937 21.3263 4.80688 22.8425 4.34188 24.8669C2.61313 23.4919 1.5 21.375 1.5 18.9994C1.5 14.8638 4.86438 11.4994 9 11.4994C13.1356 11.4994 16.5 14.8638 16.5 18.9994C16.5 21.5444 15.2231 23.7944 13.2788 25.1506ZM29 36.5006C27.7356 36.5006 26.545 36.1831 25.4987 35.6281C25.6337 33.9256 27.0462 32.5769 28.7831 32.5769C30.5881 32.5769 32.0544 34.03 32.0875 35.8275C31.1444 36.2556 30.1012 36.5006 29 36.5006ZM33.2788 35.1519C32.925 32.9869 31.0469 31.3275 28.7831 31.3275C26.6194 31.3275 24.8069 32.8438 24.3419 34.8681C22.6131 33.4931 21.5 31.3763 21.5 29.0006C21.5 24.865 24.8644 21.5006 29 21.5006C33.1356 21.5006 36.5 24.865 36.5 29.0006C36.5 31.5456 35.2231 33.795 33.2788 35.1519Z" fill="black" stroke="black" stroke-width="0.5"/>
<path d="M29 23.9357C27.2769 23.9357 25.875 25.3375 25.875 27.0607C25.875 28.7838 27.2769 30.1857 29 30.1857C30.7231 30.1857 32.125 28.7838 32.125 27.0607C32.125 25.3375 30.7231 23.9357 29 23.9357ZM29 28.9357C27.9662 28.9357 27.125 28.0944 27.125 27.0607C27.125 26.0269 27.9662 25.1857 29 25.1857C30.0338 25.1857 30.875 26.0269 30.875 27.0607C30.875 28.0944 30.0338 28.9357 29 28.9357Z" fill="black" stroke="black" stroke-width="0.5"/>
</g>
<defs>
<clipPath id="clip0_1133_209">
<rect width="38" height="38" fill="white"/>
</clipPath>
</defs>
</svg>