<svg width="37" height="37" viewBox="0 0 37 37" fill="none" xmlns="http://www.w3.org/2000/svg">
<g style="mix-blend-mode:darken">
<path d="M25.7461 1H11.2539C5.59102 1 1 5.59102 1 11.2539V25.7461C1 31.409 5.59102 36 11.2539 36H25.7461C31.409 36 36 31.409 36 25.7461V11.2539C36 5.59102 31.409 1 25.7461 1ZM35.3164 25.7461C35.3164 31.0234 31.0234 35.3164 25.7461 35.3164H11.2539C5.97656 35.3164 1.68359 31.0234 1.68359 25.7461V11.2539C1.68359 5.97656 5.97656 1.68359 11.2539 1.68359H25.7461C31.0234 1.68359 35.3164 5.97656 35.3164 11.2539V25.7461ZM26.3859 9.27148H22.968C22.5906 9.27148 22.2844 9.57773 22.2844 9.95508V27.0449C22.2844 27.4223 22.5906 27.7285 22.968 27.7285H26.3859C26.7633 27.7285 27.0695 27.4223 27.0695 27.0449V18.5V9.95508C27.0695 9.57773 26.7633 9.27148 26.3859 9.27148ZM26.3859 27.0449H22.968V9.95508H26.3859V18.5V27.0449ZM13.5139 10.1171C13.3806 9.98379 13.2056 9.9168 13.0306 9.9168C12.8556 9.9168 12.6806 9.98379 12.5473 10.1171L10.1301 12.5343C9.86279 12.8016 9.86279 13.2343 10.1301 13.5009L15.1299 18.5007L10.1301 23.5005C9.86279 23.7678 9.86279 24.2005 10.1301 24.4671L12.5473 26.8843C12.6806 27.0176 12.8556 27.0846 13.0306 27.0846C13.2056 27.0846 13.3806 27.0176 13.5139 26.8843L21.4135 18.9847C21.542 18.8562 21.6138 18.6825 21.6138 18.5014C21.6138 18.3202 21.542 18.1459 21.4135 18.0181L13.5139 10.1185V10.1171ZM13.0306 26.4003L10.6134 23.9831L16.0965 18.5L10.6134 13.0169L13.0306 10.5997L20.9302 18.4993L13.0306 26.3989V26.4003Z" fill="black"/>
<path d="M25.7461 1H11.2539C5.59102 1 1 5.59102 1 11.2539V25.7461C1 31.409 5.59102 36 11.2539 36H25.7461C31.409 36 36 31.409 36 25.7461V11.2539C36 5.59102 31.409 1 25.7461 1ZM35.3164 25.7461C35.3164 31.0234 31.0234 35.3164 25.7461 35.3164H11.2539C5.97656 35.3164 1.68359 31.0234 1.68359 25.7461V11.2539C1.68359 5.97656 5.97656 1.68359 11.2539 1.68359H25.7461C31.0234 1.68359 35.3164 5.97656 35.3164 11.2539V25.7461ZM26.3859 9.27148H22.968C22.5906 9.27148 22.2844 9.57773 22.2844 9.95508V27.0449C22.2844 27.4223 22.5906 27.7285 22.968 27.7285H26.3859C26.7633 27.7285 27.0695 27.4223 27.0695 27.0449V18.5V9.95508C27.0695 9.57773 26.7633 9.27148 26.3859 9.27148ZM26.3859 27.0449H22.968V9.95508H26.3859V18.5V27.0449ZM13.5139 10.1171C13.3806 9.98379 13.2056 9.9168 13.0306 9.9168C12.8556 9.9168 12.6806 9.98379 12.5473 10.1171L10.1301 12.5343C9.86279 12.8016 9.86279 13.2343 10.1301 13.5009L15.1299 18.5007L10.1301 23.5005C9.86279 23.7678 9.86279 24.2005 10.1301 24.4671L12.5473 26.8843C12.6806 27.0176 12.8556 27.0846 13.0306 27.0846C13.2056 27.0846 13.3806 27.0176 13.5139 26.8843L21.4135 18.9847C21.542 18.8562 21.6138 18.6825 21.6138 18.5014C21.6138 18.3202 21.542 18.1459 21.4135 18.0181L13.5139 10.1185V10.1171ZM13.0306 26.4003L10.6134 23.9831L16.0965 18.5L10.6134 13.0169L13.0306 10.5997L20.9302 18.4993L13.0306 26.3989V26.4003Z" stroke="black"/>
</g>
</svg>