<svg width="16" height="16" viewBox="0 0 16 16" fill="none" xmlns="http://www.w3.org/2000/svg">
<g clip-path="url(#clip0_1_494)">
<path d="M2.66667 4C2.40384 4.00069 2.14348 3.94925 1.90065 3.84867C1.65783 3.74808 1.43736 3.60034 1.252 3.414L0.22267 2.498C0.0905925 2.38024 0.0107027 2.21484 0.000575747 2.03818C-0.00955122 1.86152 0.0509142 1.68808 0.16867 1.556C0.286426 1.42392 0.451827 1.34403 0.628486 1.33391C0.805146 1.32378 0.978592 1.38424 1.11067 1.502L2.16734 2.44467C2.22783 2.5126 2.30158 2.56743 2.38405 2.60579C2.46653 2.64416 2.55598 2.66523 2.64691 2.66773C2.73783 2.67023 2.82831 2.65409 2.91277 2.62032C2.99722 2.58654 3.07387 2.53584 3.138 2.47133L5.54067 0.184C5.66987 0.0689798 5.83871 0.00867899 6.01154 0.0158337C6.18437 0.0229883 6.34765 0.0970383 6.4669 0.222343C6.58614 0.347648 6.65202 0.514396 6.65061 0.687367C6.6492 0.860339 6.58061 1.02599 6.45934 1.14933L4.06667 3.42533C3.88252 3.60841 3.66409 3.7534 3.42386 3.85201C3.18364 3.95061 2.92634 4.0009 2.66667 4ZM16 2.66667C16 2.48986 15.9298 2.32029 15.8047 2.19526C15.6797 2.07024 15.5101 2 15.3333 2H8.66667C8.48986 2 8.32029 2.07024 8.19526 2.19526C8.07024 2.32029 8 2.48986 8 2.66667C8 2.84348 8.07024 3.01305 8.19526 3.13807C8.32029 3.2631 8.48986 3.33333 8.66667 3.33333H15.3333C15.5101 3.33333 15.6797 3.2631 15.8047 3.13807C15.9298 3.01305 16 2.84348 16 2.66667ZM4.06667 8.75867L6.45934 6.48267C6.52612 6.42321 6.58026 6.35094 6.61853 6.27013C6.65681 6.18933 6.67844 6.10165 6.68214 6.01231C6.68584 5.92298 6.67153 5.83381 6.64006 5.75012C6.60859 5.66643 6.56061 5.58992 6.49897 5.52515C6.43734 5.46038 6.3633 5.40867 6.28127 5.3731C6.19924 5.33753 6.11089 5.31882 6.02148 5.31809C5.93207 5.31736 5.84343 5.33463 5.76083 5.36886C5.67823 5.40308 5.60336 5.45358 5.54067 5.51733L3.14067 7.80467C3.01376 7.92602 2.84493 7.99375 2.66934 7.99375C2.49374 7.99375 2.32491 7.92602 2.198 7.80467L1.138 6.748C1.01227 6.62656 0.843867 6.55937 0.669069 6.56089C0.494272 6.5624 0.327063 6.63252 0.203458 6.75612C0.0798525 6.87973 0.00973992 7.04694 0.00822097 7.22173C0.00670203 7.39653 0.0738983 7.56493 0.195337 7.69067L1.252 8.74734C1.62512 9.12054 2.13061 9.33115 2.65834 9.33327C3.18606 9.33539 3.69323 9.12886 4.06934 8.75867H4.06667ZM16 8C16 7.82319 15.9298 7.65362 15.8047 7.5286C15.6797 7.40357 15.5101 7.33334 15.3333 7.33334H8.66667C8.48986 7.33334 8.32029 7.40357 8.19526 7.5286C8.07024 7.65362 8 7.82319 8 8C8 8.17681 8.07024 8.34638 8.19526 8.47141C8.32029 8.59643 8.48986 8.66667 8.66667 8.66667H15.3333C15.5101 8.66667 15.6797 8.59643 15.8047 8.47141C15.9298 8.34638 16 8.17681 16 8ZM4.06667 14.092L6.45667 11.816C6.52345 11.7566 6.57759 11.6843 6.61587 11.6035C6.65414 11.5227 6.67577 11.435 6.67947 11.3456C6.68317 11.2563 6.66886 11.1671 6.63739 11.0835C6.60593 10.9998 6.55795 10.9233 6.49631 10.8585C6.43467 10.7937 6.36063 10.742 6.2786 10.7064C6.19657 10.6709 6.10822 10.6522 6.01881 10.6514C5.9294 10.6507 5.84076 10.668 5.75816 10.7022C5.67556 10.7364 5.60069 10.7869 5.538 10.8507L3.138 13.138C3.07387 13.2025 2.99722 13.2532 2.91277 13.287C2.82831 13.3208 2.73783 13.3369 2.64691 13.3344C2.55598 13.3319 2.46653 13.3108 2.38405 13.2725C2.30158 13.2341 2.22783 13.1793 2.16734 13.1113L1.11067 12.1687C0.978592 12.0509 0.805146 11.9904 0.628486 12.0006C0.451827 12.0107 0.286426 12.0906 0.16867 12.2227C0.0509142 12.3547 -0.00955122 12.5282 0.000575747 12.7049C0.0107027 12.8815 0.0905925 13.0469 0.22267 13.1647L1.252 14.0807C1.62512 14.4539 2.13061 14.6645 2.65834 14.6666C3.18606 14.6687 3.69323 14.4622 4.06934 14.092H4.06667ZM16 13.3333C16 13.1565 15.9298 12.987 15.8047 12.8619C15.6797 12.7369 15.5101 12.6667 15.3333 12.6667H8.66667C8.48986 12.6667 8.32029 12.7369 8.19526 12.8619C8.07024 12.987 8 13.1565 8 13.3333C8 13.5101 8.07024 13.6797 8.19526 13.8047C8.32029 13.9298 8.48986 14 8.66667 14H15.3333C15.5101 14 15.6797 13.9298 15.8047 13.8047C15.9298 13.6797 16 13.5101 16 13.3333Z" fill="#525252"/>
</g>
<defs>
<clipPath id="clip0_1_494">
<rect width="16" height="16" fill="white"/>
</clipPath>
</defs>
</svg>
